<svg id="Capa_1" enable-background="new 0 0 448.024 448.024" height="512" viewBox="0 0 448.024 448.024" width="512" xmlns="http://www.w3.org/2000/svg"><path d="m196.005 216.024c-13.255 0-24 10.745-24 24s10.745 24 24 24 24-10.745 24-24c-.015-13.249-10.751-23.986-24-24zm0 32c-4.418 0-8-3.582-8-8s3.582-8 8-8 8 3.582 8 8c-.005 4.416-3.584 7.995-8 8z"/><path d="m380.005 240.024c0-101.458-82.542-184-184-184s-184 82.542-184 184 82.542 184 184 184c44.065.039 86.669-15.805 120-44.629v8.629c0 33.137 26.863 60 60 60s60-26.863 60-60v-194.111c.031-9.1-5.114-17.425-13.267-21.467l-30.311-15.155c-2.717-1.348-4.432-4.123-4.422-7.156v-7.487c9.581-3.399 15.987-12.458 16-22.624v-13.414c27.944-13.255 39.851-46.653 26.596-74.596-13.254-27.945-46.652-39.852-74.596-26.597s-39.851 46.653-26.596 74.596c5.534 11.667 14.93 21.062 26.596 26.596v13.414c.013 10.166 6.419 19.225 16 22.624v7.487c-.031 9.1 5.114 17.425 13.267 21.467l30.311 15.155c2.717 1.348 4.432 4.123 4.422 7.156v194.111c0 24.301-19.699 44-44 44s-44-19.699-44-44v-24.193c30.912-33.818 48.037-77.989 48-123.806zm-40-184c0-22.091 17.909-40 40-40s40 17.909 40 40-17.909 40-40 40c-22.081-.025-39.975-17.919-40-40zm40 72c-4.416-.005-7.995-3.584-8-8v-8.581c5.305.775 10.695.775 16 0v8.581c-.005 4.416-3.584 7.995-8 8zm-48 210.509v-25.066c.449.079.905.119 1.361.119.524 0 1.048-.052 1.562-.154l13.43-2.658c-4.55 9.755-10.026 19.05-16.353 27.759zm23.413-45.467-23.413 4.634v-35.052c4.462-1.586 8.357-4.452 11.2-8.239 2.707 2.05 6.416 2.159 9.239.271l11.4-7.6c-.639 15.647-3.475 31.128-8.426 45.986zm-39.413 55.572-16.613-3.314c-4.333-.866-8.547 1.945-9.413 6.277s1.945 8.547 6.277 9.413l13.35 2.667c-11.514 10.591-24.445 19.529-38.422 26.557l-19.947-13.365c-3.659-2.477-8.633-1.519-11.11 2.139s-1.519 8.633 2.139 11.11c.021.014.043.029.064.043l11.406 7.643c-14.711 5.395-30.109 8.69-45.74 9.788l-13.337-20c-2.431-3.689-7.393-4.708-11.082-2.277s-4.709 7.393-2.277 11.082c.016.024.031.047.047.071l7.6 11.4c-15.649-.639-31.13-3.476-45.988-8.428l-4.67-23.6c-.858-4.335-5.068-7.155-9.403-6.297s-7.155 5.068-6.297 9.403l2.658 13.43c-14.2-6.622-27.408-15.193-39.24-25.465l4.695-23.5c.866-4.333-1.945-8.547-6.277-9.413s-8.547 1.945-9.413 6.277l-2.667 13.35c-10.589-11.516-19.525-24.448-26.551-38.426l13.365-19.947c2.477-3.659 1.519-8.633-2.14-11.109-3.659-2.477-8.633-1.519-11.109 2.14-.014.021-.028.042-.042.063l-7.643 11.406c-5.395-14.711-8.69-30.109-9.788-45.74l20-13.337c3.663-2.47 4.63-7.442 2.16-11.106-2.452-3.636-7.374-4.62-11.036-2.206l-11.4 7.6c.639-15.649 3.476-31.13 8.428-45.988l23.6-4.67c4.335-.858 7.155-5.068 6.297-9.403s-5.068-7.155-9.403-6.297l-13.43 2.658c6.623-14.2 15.193-27.408 25.465-39.24l23.5 4.7c4.333.866 8.547-1.945 9.413-6.277.866-4.333-1.945-8.547-6.278-9.413l-13.35-2.667c11.514-10.591 24.445-19.529 38.422-26.557l19.947 13.365c3.659 2.477 8.633 1.519 11.109-2.14 2.477-3.659 1.519-8.633-2.14-11.109-.021-.014-.042-.028-.063-.042l-11.406-7.643c14.711-5.395 30.109-8.69 45.74-9.788l13.337 20c2.471 3.663 7.443 4.629 11.106 2.158 3.635-2.452 4.619-7.373 2.206-11.034l-7.6-11.4c15.649.639 31.13 3.476 45.988 8.428l4.67 23.6c.858 4.335 5.068 7.155 9.403 6.297s7.155-5.068 6.297-9.403l-2.658-13.43c14.2 6.623 27.408 15.193 39.24 25.465l-4.695 23.5c-.866 4.333 1.945 8.547 6.277 9.413 4.333.866 8.547-1.945 9.413-6.278l2.667-13.35c10.591 11.514 19.529 24.445 26.557 38.422l-13.365 19.947c-2.477 3.659-1.519 8.633 2.139 11.11s8.633 1.519 11.11-2.139c.014-.021.029-.043.043-.064l7.643-11.406c5.395 14.711 8.69 30.109 9.788 45.74l-15.624 10.417c-.843-12.61-11.312-22.412-23.95-22.424h-26.8c-13.255-55.887-69.306-90.448-125.193-77.193s-90.448 69.306-77.193 125.193 69.306 90.448 125.193 77.193c38.253-9.072 68.12-38.94 77.193-77.193h18.8v84.613zm-69.456-112.775c-.698.066-1.401.071-2.1.014-4.404-.351-8.259 2.934-8.611 7.339v.004c-.484 6.248-2.45 12.29-5.736 17.626-2.305 3.769-1.119 8.693 2.65 10.999.001 0 .001.001.002.001.602.365 1.171.783 1.7 1.247l27.909 24.666c-8.754 10.056-19.669 18.002-31.927 23.244l-14.85-34.2c-.278-.644-.5-1.311-.662-1.993-1.026-4.294-5.338-6.945-9.633-5.923-6.095 1.511-12.467 1.511-18.562 0-4.295-1.022-8.607 1.629-9.633 5.923-.162.682-.384 1.349-.662 1.993l-14.85 34.2c-12.258-5.242-23.173-13.188-31.927-23.244l27.909-24.665c.529-.465 1.098-.883 1.7-1.248 3.77-2.304 4.958-7.229 2.653-10.998 0-.001-.001-.001-.001-.002-3.286-5.336-5.252-11.378-5.736-17.626-.349-4.404-4.202-7.692-8.607-7.343-.001 0-.003 0-.004 0-.699.056-1.402.051-2.1-.014l-37.116-3.555c1.155-13.287 5.337-26.134 12.224-37.555l32.1 18.929c.601.356 1.17.765 1.7 1.22 3.355 2.87 8.401 2.479 11.274-.873 4.08-4.765 9.216-8.511 15-10.94 4.071-1.695 6.003-6.364 4.319-10.44-.265-.64-.474-1.302-.624-1.979l-8.091-36.41c12.998-2.981 26.502-2.981 39.5 0l-8.091 36.411c-.15.676-.359 1.338-.624 1.978-1.684 4.076.248 8.745 4.319 10.44 5.784 2.428 10.92 6.175 15 10.94 2.873 3.352 7.919 3.743 11.274.873.53-.455 1.099-.863 1.7-1.22l32.1-18.929c6.887 11.421 11.069 24.268 12.224 37.555zm37.056 12.524c-1.213 12.84-5.254 25.252-11.832 36.345l-24.694-21.825c1.644-3.646 2.885-7.46 3.7-11.376zm-68.481 77.537c-12.593 2.797-25.645 2.797-38.238 0l13.132-30.242c3.978.453 7.996.453 11.974 0zm-94.887-41.194c-6.578-11.092-10.619-23.504-11.832-36.343l32.824 3.144c.815 3.916 2.056 7.73 3.7 11.376zm9.853-102.941c8.535-9.659 19.079-17.334 30.893-22.489l7.148 32.167c-3.464 2.002-6.707 4.366-9.672 7.052zm93.789 9.678 7.148-32.167c11.814 5.155 22.358 12.83 30.893 22.489l-28.369 16.735c-2.965-2.687-6.207-5.052-9.672-7.055zm100.126 56.557h-24v-16h24c4.418 0 8 3.582 8 8s-3.582 8-8 8z"/><path d="m392.005 56.024c-.001-.425-.024-.849-.069-1.271.818-.388 1.564-.913 2.206-1.552l7.52-7.52c3.124-3.124 3.124-8.19 0-11.314s-8.19-3.124-11.314 0l-7.52 7.52c-.639.642-1.164 1.388-1.552 2.206-.422-.045-.846-.068-1.271-.069-6.627 0-12 5.373-12 12s5.373 12 12 12 12-5.373 12-12z"/><path d="m388.005 296.024h16v32h-16z"/><path d="m388.005 344.024h16v16h-16z"/></svg>